<?xml version="1.0" encoding="utf-8"?>
<!DOCTYPE svg PUBLIC "-//W3C//DTD SVG 1.1//EN" "http://www.w3.org/Graphics/SVG/1.1/DTD/svg11.dtd">
<svg xmlns="http://www.w3.org/2000/svg" xmlns:xlink="http://www.w3.org/1999/xlink" version="1.1" baseProfile="full" width="81.92" height="81.92" viewBox="0 0 81.92 81.92" enable-background="new 0 0 81.92 81.92" xml:space="preserve">
	<path fill="#FF2D04" fill-opacity="1" stroke-width="0.2" stroke-linejoin="round" stroke="#A15858" stroke-opacity="1" d="M 1.01725e-005,-0.919991L 81.92,-0.919991L 82.5,82.5L 1.01725e-005,82.5L 1.01725e-005,-0.919991 Z "/>
	<path fill="#FFFFFF" fill-opacity="1" stroke-width="0.2" stroke-linejoin="round" stroke="#A15858" stroke-opacity="1" d="M 46.5,67.25C 40.5,64.5 30,63 25,55.75C 20,48.5 20.5,35.5 26,29.5C 31.5,23.5 42,24.5 49,30.25C 56,36 59.5,46.5 62.75,51.5C 66,56.5 69,56 70.5,47.5C 72,39 72,22.5 60.75,14.25C 49.5,6.00001 27,6 16,17.75C 5,29.5 5.5,53 14,65C 22.5,77 39,77.5 46.5,75.75C 54,74 52.5,70 46.5,67.25 Z "/>
	<path fill="#FFFFFF" fill-opacity="1" stroke-width="0.2" stroke-linejoin="round" stroke="#A15858" stroke-opacity="1" d="M 50.5,45C 54,48.5 61.5,55 65.5,58C 69.5,61 70,60.5 71.75,56.25C 73.5,52 76.5,44 77.75,39.75C 79,35.5 78.5,35 76.75,37.25C 75,39.5 72,44.5 69.5,47.25C 67,50 65,50.5 61.5,49C 58,47.5 53,44 50.25,42.5C 47.5,41 47,41.5 50.5,45 Z "/>
</svg>
